<svg id="Layer_1" data-name="Layer 1" xmlns="http://www.w3.org/2000/svg" viewBox="0 0 1280 1280"><defs><style>.cls-1{fill:#fff;}</style></defs><title>brandmark-white</title><g id="brandmark"><path id="window-top-left" class="cls-1" d="M102.32,102.31h0l341.33,62.06,31,310.3h0l-310.3-31L102.31,102.32h0M102,0C39.9,0-9.94,56.62,1.7,120.61L63.76,461.94A102.27,102.27,0,0,0,154.2,545.4l310.3,31c3.49.35,7,.52,10.38.52,59.61,0,107.63-51.66,101.55-112.45l-31-310.3a102.27,102.27,0,0,0-83.46-90.44L120.61,1.7A103.92,103.92,0,0,0,102,0Z"/><path id="window-top-right" class="cls-1" d="M1177.69,102.31h0l-62.06,341.33-310.3,31,31-310.3,341.33-62.06M1178,0a103.92,103.92,0,0,0-18.65,1.7L818.06,63.76A102.27,102.27,0,0,0,734.6,154.2l-31,310.3C697.49,525.3,745.51,577,805.12,577c3.42,0,6.89-.17,10.38-.52l310.3-31a102.27,102.27,0,0,0,90.44-83.46l62.06-341.33C1289.94,56.62,1240.1,0,1178,0Z"/><path id="window-bottom-left" class="cls-1" d="M474.67,805.33h0l-31,310.3-341.33,62.06h0l62.06-341.33,310.3-31m.21-102.28c-3.42,0-6.89.17-10.38.52l-310.3,31a102.27,102.27,0,0,0-90.44,83.46L1.7,1159.39C-9.94,1223.38,39.9,1280,102,1280a103.92,103.92,0,0,0,18.65-1.7l341.33-62.06a102.27,102.27,0,0,0,83.46-90.44l31-310.3c6.08-60.8-41.94-112.45-101.55-112.45Z"/><path id="window-bottom-right" class="cls-1" d="M805.33,805.33h0l310.3,31,62.06,341.33h0l-341.33-62.06-31-310.3h0m-.21-102.28c-59.61,0-107.63,51.66-101.55,112.45l31,310.3a102.27,102.27,0,0,0,83.46,90.44l341.33,62.06A103.92,103.92,0,0,0,1178,1280c62.06,0,111.9-56.62,100.26-120.61l-62.06-341.33a102.27,102.27,0,0,0-90.44-83.46l-310.3-31c-3.49-.35-7-.52-10.38-.52Z"/></g></svg>