<svg id="Layer_1" data-name="Layer 1" xmlns="http://www.w3.org/2000/svg" viewBox="0 0 1280 1233.56">
  <defs>
    <style>
      .cls-1 {
        fill: #3b82f6;
      }
    </style>
  </defs>
  <title>trademarked-brandmark-primary</title>
  <g id="trademarked-brandmark">
    <g id="brandmark">
      <path id="window-top-left" class="cls-1"
        d="M93,162.93h0l310.3,56.41,28.18,282.1h0L149.41,473.25,93,162.93h0m-.28-93C36.27,69.92-9,121.39,1.54,179.56L58,489.86a93,93,0,0,0,82.22,75.88l282.09,28.18c3.17.32,6.37.47,9.44.47,54.19,0,97.84-47,92.32-102.23L495.85,210.07A93,93,0,0,0,420,127.85L109.64,71.46A94,94,0,0,0,92.73,69.92Z" />
      <path id="window-top-right" class="cls-1"
        d="M1070.63,162.93h0l-56.42,310.3L732.12,501.41,760.3,219.32l310.3-56.42m.31-93a94.41,94.41,0,0,0-17,1.54L743.69,127.88a93,93,0,0,0-75.87,82.22L639.64,492.19c-5.56,55.27,38.1,102.27,92.29,102.27a93.91,93.91,0,0,0,9.43-.47l282.1-28.18a93,93,0,0,0,82.22-75.87l56.41-310.31C1172.68,121.39,1127.37,69.92,1070.91,69.92Z" />
      <path id="window-bottom-left" class="cls-1"
        d="M431.52,802h0l-28.18,282.09L93,1140.55h0l56.42-310.3,282.09-28.19m.2-93a94.14,94.14,0,0,0-9.44.48L140.21,737.74A93,93,0,0,0,58,813.61L1.54,1123.91C-9,1182.08,36.27,1233.56,92.73,1233.56a94.5,94.5,0,0,0,17-1.55L420,1175.59a93,93,0,0,0,75.87-82.21L524,811.28c5.52-55.27-38.13-102.22-92.32-102.22Z" />
      <path id="window-bottom-right" class="cls-1"
        d="M732.12,802h0l282.09,28.18,56.42,310.3h0l-310.3-56.42L732.15,802h0M732,709c-54.2,0-97.85,47-92.32,102.23l28.18,282.09a93,93,0,0,0,75.87,82.22L1054,1232a94.2,94.2,0,0,0,16.92,1.58c56.42,0,101.73-51.48,91.15-109.65l-56.42-310.3a93,93,0,0,0-82.22-75.87L741.33,709.56c-3.17-.32-6.37-.48-9.44-.48Z" />
    </g>
    <path id="trademark" class="cls-1"
      d="M1223.53,0V6.93h-14.86V46.65h-6.93V6.93h-14.83V0Zm3.32,46.65,9-46.65h5.6l12,31.42L1265.34,0h5.6L1280,46.65h-7.07l-6-31.22-11.16,29.45h-4.66L1240,15.43l-6,31.22Z" />
  </g>
</svg>