<?xml version="1.0" encoding="utf-8"?>
<!-- Generator: Adobe Illustrator 27.9.0, SVG Export Plug-In . SVG Version: 6.00 Build 0)  -->
<svg version="1.1" id="Layer_1" xmlns="http://www.w3.org/2000/svg" xmlns:xlink="http://www.w3.org/1999/xlink" x="0px" y="0px"
	 viewBox="0 0 1280 251.8" style="enable-background:new 0 0 1280 251.8;" xml:space="preserve">
<style type="text/css">
	.st0{fill:#020617;}
	.st1{fill:#3B82F6;}
</style>
<g id="trademarked-horizontal-mark">
	<path id="trademark" class="st0" d="M1245.7,42v4.2h-9v24h-4.2V46.1h-9V42H1245.7z M1247.7,70.2l5.5-28.2h3.4l7.3,19.1l7.2-19.1
		h3.4l5.5,28.2h-4.2l-3.7-19l-6.8,17.9h-2.8l-6.8-17.9l-3.7,19H1247.7z"/>
	<g id="brandmark">
		<path id="window-top-left" class="st1" d="M20.1,20.1L20.1,20.1l67.2,12.2l6.1,61l0,0l-61-6.1L20.1,20.1L20.1,20.1 M20.1,0
			C9,0,0,9.1,0,20.2c0,0,0,0,0,0c0,1.2,0.1,2.4,0.3,3.5l12.2,67.2c1.6,8.8,8.9,15.5,17.8,16.4l61,6.1c11.1,1.1,20.9-7,22-18
			c0.1-0.7,0.1-1.4,0.1-2c0-0.7,0-1.3-0.1-2l-6.1-61c-0.9-8.9-7.6-16.2-16.4-17.8L23.7,0.3C22.5,0.1,21.3,0,20.1,0z"/>
		<path id="window-top-right" class="st1" d="M231.7,20.1L231.7,20.1l-12.2,67.1l-61,6.1l6.1-61L231.7,20.1 M231.7,0
			c-1.2,0-2.5,0.1-3.7,0.3l-67.1,12.2c-8.8,1.6-15.5,8.9-16.4,17.8l-6.1,61c-1.1,11,6.9,20.9,17.9,22c0.7,0.1,1.4,0.1,2.1,0.1
			c0.7,0,1.3,0,2-0.1l61-6.1c8.9-0.9,16.2-7.6,17.8-16.4l12.2-67.2c2-10.9-5.2-21.3-16.1-23.3C234.1,0.1,232.9,0,231.7,0z"/>
		<path id="window-bottom-left" class="st1" d="M93.4,158.4L93.4,158.4l-6.1,61l-67.2,12.2l0,0l12.2-67.1L93.4,158.4 M93.3,138.3
			c-0.7,0-1.3,0-2,0.1l-61,6.1c-8.9,0.9-16.2,7.6-17.8,16.4L0.3,228.1c-2,10.9,5.2,21.4,16.1,23.4c1.2,0.2,2.4,0.3,3.6,0.3
			c1.2,0,2.5-0.1,3.7-0.3l67.1-12.2c8.8-1.6,15.5-8.9,16.4-17.8l6.1-61c1.1-11-6.9-20.9-17.9-22C94.8,138.4,94.1,138.4,93.3,138.3
			L93.3,138.3z"/>
		<path id="window-bottom-right" class="st1" d="M158.4,158.4L158.4,158.4l61,6.1l12.2,67.1l0,0l-67.1-12.2L158.4,158.4L158.4,158.4
			 M158.4,138.3c-11.1,0-20.1,9-20.1,20.1c0,0.7,0,1.3,0.1,2l6.1,61c0.9,8.9,7.6,16.2,16.4,17.8l67.1,12.2c1.2,0.2,2.4,0.3,3.7,0.3
			c11.1,0,20.1-9.1,20.1-20.2c0,0,0,0,0,0c0-1.2-0.1-2.4-0.3-3.5l-12.2-67.1c-1.6-8.8-8.9-15.6-17.8-16.4l-61-6.1
			C159.8,138.3,159.1,138.3,158.4,138.3L158.4,138.3z"/>
	</g>
	<g id="wordmark">
		<path id="t" class="st0" d="M446,42v20h-55.7v144.7h-20.1V62h-55.5V42H446z"/>
		<path id="r" class="st0" d="M446,206.7V87.2h20.1v14.9c4.3-5.6,9.7-10.1,16-13.3c6.5-3.3,13.7-5,21-5c4.5,0,9,0.6,13.4,1.8
			l-8.1,20.1c-3.1-1-6.3-1.5-9.6-1.6c-5.8-0.1-11.4,1.4-16.4,4.4c-4.9,2.8-9,6.9-11.9,11.8c-3,5-4.5,10.7-4.4,16.5v69.9L446,206.7z"
			/>
		<path id="a1" class="st0" d="M624.3,87.3h20.1v119.5h-20.1l-0.8-20.2c-3.7,6.8-9,12.6-15.5,16.8c-6.6,4.3-14.4,6.4-23.5,6.4
			c-8.5,0-16.8-1.7-24.6-5c-15.3-6.6-27.4-18.7-33.9-34c-9.8-23.5-4.6-50.5,13.2-68.7c5.7-5.7,12.4-10.2,19.8-13.3
			c7.6-3.2,15.8-4.9,24.1-4.8c9.4,0,17.6,2.2,24.7,6.6c7,4.3,12.9,10.2,17.2,17.1L624.3,87.3z M584.2,190.4c7.9,0,14.7-1.9,20.5-5.8
			c5.8-3.9,10.4-9.3,13.3-15.7c6.3-13.9,6.3-30,0-43.9c-3-6.3-7.6-11.7-13.4-15.7c-6.1-3.9-13.2-6-20.4-5.8
			c-7.6-0.1-15,1.9-21.5,5.8c-13.2,7.9-21.2,22.2-21,37.6c-0.1,7.7,1.9,15.3,5.9,21.9c3.8,6.4,9.1,11.8,15.5,15.6
			C569.5,188.4,576.8,190.4,584.2,190.4L584.2,190.4z"/>
		<path id="c" class="st0" d="M757.1,175.2l17.9,9.7c-5.4,7.5-12.4,13.7-20.6,18.1c-18,9.6-39.7,9-57.1-1.7
			c-18.7-11.7-29.9-32.3-29.7-54.3c-0.1-16.6,6.1-32.6,17.5-44.6c5.4-5.7,11.9-10.3,19.1-13.6c16.1-7.2,34.7-6.4,50.2,1.9
			c8.2,4.4,15.2,10.7,20.6,18.3l-17.9,9.7c-3.7-4.6-8.3-8.3-13.6-10.9c-5-2.5-10.5-3.8-16.1-3.8c-7.1-0.1-14.1,2-20.1,5.9
			c-6,3.9-11,9.3-14.3,15.7c-3.5,6.6-5.3,13.9-5.3,21.4c-0.1,7.4,1.8,14.8,5.3,21.3c3.4,6.3,8.3,11.7,14.3,15.6
			c5.9,3.9,12.9,5.9,20,5.9c5.8,0,11.5-1.4,16.7-4.1C749,183.1,753.5,179.5,757.1,175.2z"/>
		<path id="w" class="st0" d="M842.3,206.7H822L782,87.2h19.6l30.8,91.1l30.5-91.1h20.7l30.6,91.1l30.5-91.1h19.9l-40,119.5h-20.5
			l-30.9-92L842.3,206.7z"/>
		<path id="a2" class="st0" d="M1076.9,87.3h20.1v119.5h-20.1l-0.8-20.2c-3.7,6.8-9,12.6-15.5,16.8c-6.6,4.3-14.4,6.4-23.5,6.4
			c-8.5,0-16.8-1.7-24.6-5c-15.3-6.6-27.4-18.7-33.9-34c-9.8-23.5-4.6-50.5,13.2-68.7c5.7-5.7,12.4-10.2,19.8-13.4
			c7.6-3.2,15.8-4.9,24.1-4.8c9.4,0,17.6,2.2,24.7,6.6c7,4.3,12.9,10.2,17.2,17.1L1076.9,87.3z M1036.7,190.4
			c7.9,0,14.7-1.9,20.5-5.8c5.8-3.9,10.4-9.3,13.4-15.7c6.3-14,6.3-30-0.1-43.9c-3-6.3-7.6-11.7-13.4-15.7c-6.1-3.9-13.2-6-20.4-5.8
			c-7.6-0.1-15,1.9-21.5,5.8c-13.2,7.9-21.2,22.2-21,37.6c-0.1,7.7,1.9,15.3,5.9,21.9c3.8,6.4,9.1,11.8,15.5,15.6
			C1022,188.4,1029.3,190.4,1036.7,190.4L1036.7,190.4z"/>
		<path id="y" class="st0" d="M1202.1,87.3h21.3l-60,164.5h-21.3l16.3-45.1l-42.9-119.5h22l30.9,91.8L1202.1,87.3z"/>
	</g>
</g>
</svg>
